<?xml version="1.0" standalone="no"?><!DOCTYPE svg PUBLIC "-//W3C//DTD SVG 1.1//EN" "http://www.w3.org/Graphics/SVG/1.1/DTD/svg11.dtd"><svg t="1584684673853" class="icon" viewBox="0 0 1024 1024" version="1.1" xmlns="http://www.w3.org/2000/svg" p-id="58114" xmlns:xlink="http://www.w3.org/1999/xlink" width="200" height="200"><defs><style type="text/css"></style></defs><path d="M318.155208 695.179253a53.749942 53.749942 0 0 0 76.019919 0l588.529367-588.444368a53.921942 53.921942 0 0 0 0-76.189918l-0.169999-0.17a53.749942 53.749942 0 0 0-75.933919 0.17L318.070208 618.989335a53.921942 53.921942 0 0 0 0 76.189918z" p-id="58115"></path><path d="M970.077508 431.202537h-0.256a53.665942 53.665942 0 0 0-53.664942 53.664942v431.372537H107.844434V107.672884l431.371537 0.17a53.749942 53.749942 0 0 0 53.665942-53.834942v-0.17A53.665942 53.665942 0 0 0 539.131971 0.17H53.752492A53.323943 53.323943 0 0 0 0.08855 53.749942L0.00255 970.418958a53.323943 53.323943 0 0 0 53.664942 53.579942H970.419508a53.409943 53.409943 0 0 0 53.494942-53.750942V484.952479a53.749942 53.749942 0 0 0-53.836942-53.663942z" p-id="58116"></path></svg>