<?xml version="1.0" standalone="no"?><!DOCTYPE svg PUBLIC "-//W3C//DTD SVG 1.1//EN" "http://www.w3.org/Graphics/SVG/1.1/DTD/svg11.dtd"><svg t="1584673131618" class="icon" viewBox="0 0 1024 1024" version="1.1" xmlns="http://www.w3.org/2000/svg" p-id="13400" xmlns:xlink="http://www.w3.org/1999/xlink" width="200" height="200"><defs><style type="text/css"></style></defs><path d="M678.51 257.91a27.72 27.72 0 0 1-27.67-27.79v-63.56a27.82 27.82 0 0 1 18.48-26.19L746.83 113a27.77 27.77 0 0 1 18.41 52.39l-59 20.88v43.92a27.77 27.77 0 0 1-27.67 27.77zM159.36 681.16A27.29 27.29 0 0 1 132 653.94v-27.5c0-107.09 87.55-194.21 195.16-194.21h83.9c107.61 0 195.16 87.12 195.16 194.21v27.49a27.35 27.35 0 0 1-27.29 27.23z m392.18-54.47v-0.26c0-77.05-63-139.74-140.46-139.74h-83.9c-77.45 0-140.47 62.69-140.47 139.74v0.26zM125.27 763.08c-15.1 0-27.39-13-27.39-28.89s12.29-28.89 27.39-28.89h494.52c15.11 0 27.4 13 27.4 28.89s-12.29 28.89-27.4 28.89z" p-id="13401"></path><path d="M213.45 926.92c-44.9 0-81.43-36.36-81.43-81.05v-34a27.44 27.44 0 0 1 27.38-27.37h421.4a27.45 27.45 0 0 1 27.44 27.32v34a79.59 79.59 0 0 1-4.44 26.39h201.14l39.24-535.55h-79.6a27.33 27.33 0 1 1 0-54.67h135.1a27.33 27.33 0 1 1 0.05 54.67h-0.49l-41.42 564.92a27.52 27.52 0 0 1-27.31 25.34z m-26.54-81.05a26.5 26.5 0 0 0 26.54 26.39H526.8a26.5 26.5 0 0 0 26.56-26.39v-6.69H186.91z" p-id="13402"></path><path d="M681.24 701.64a27.3 27.3 0 0 1-27.35-27.23V336.52H515.06l4.61 62.87a27.46 27.46 0 0 1-6.67 19.82 27.1 27.1 0 0 1-18.7 9.32c-0.66 0.05-1.36 0.08-2.06 0.08a27.42 27.42 0 0 1-27.21-25.25l-4.91-66.85h-0.42a27.24 27.24 0 1 1 0-54.51h221.55a27.31 27.31 0 0 1 27.37 27.23V674.4a27.3 27.3 0 0 1-27.3 27.24z" p-id="13403"></path></svg>