<?xml version="1.0" standalone="no"?><!DOCTYPE svg PUBLIC "-//W3C//DTD SVG 1.1//EN" "http://www.w3.org/Graphics/SVG/1.1/DTD/svg11.dtd"><svg t="1584673242126" class="icon" viewBox="0 0 1024 1024" version="1.1" xmlns="http://www.w3.org/2000/svg" p-id="14915" xmlns:xlink="http://www.w3.org/1999/xlink" width="200" height="200"><defs><style type="text/css"></style></defs><path d="M832.162 788.418c0 6.262-20.779 107.222-88.998 107.222H301.166c-113.634 11.475-115.912-128.038-115.912-134.301v-496.55C173.865 150.902 289.414 119.45 295.676 119.45l408.461 8.54c6.262 0 128.025 0 123.443 109.466l4.582 550.962z" fill="#FFFFFF" p-id="14916"></path><path d="M837.474 545.95l4.977 1.134-4.977-1.134zM717.396 929.695H298.684c-75.987 0-137.808-61.821-137.808-137.818V235.012c0-75.987 61.821-137.808 137.808-137.808h418.712c75.997 0 137.818 61.821 137.818 137.808v556.864c0 75.997-61.821 137.819-137.818 137.819zM298.684 138.532c-53.194 0-96.48 43.276-96.48 96.48v556.864c0 53.204 43.286 96.49 96.48 96.49h418.712c53.204 0 96.49-43.286 96.49-96.49V235.012c0-53.204-43.286-96.48-96.49-96.48H298.684z" p-id="14917"></path><path d="M813.886 290.224H326.865c-11.412 0-20.664-9.252-20.664-20.664s9.252-20.664 20.664-20.664h487.021c11.412 0 20.664 9.252 20.664 20.664s-9.252 20.664-20.664 20.664zM675.863 195.664a23.61 23.61 0 1 0 47.22 0 23.61 23.61 0 1 0-47.22 0zM508.04 792.502c-117.013 0-212.202-95.188-212.202-212.202s95.189-212.212 212.202-212.212S720.251 463.287 720.251 580.3 625.053 792.502 508.04 792.502z m0-383.085c-94.22 0-170.873 76.653-170.873 170.883 0 94.22 76.653 170.873 170.873 170.873 94.23 0 170.883-76.653 170.883-170.873 0-94.23-76.653-170.883-170.883-170.883z" p-id="14918"></path><path d="M409.582 600.964c-11.412 0-20.664-9.252-20.664-20.664 0-65.686 53.436-119.122 119.122-119.122 11.412 0 20.664 9.252 20.664 20.664s-9.252 20.664-20.664 20.664c-42.892 0-77.793 34.901-77.793 77.793-0.001 11.413-9.253 20.665-20.665 20.665z" p-id="14919"></path></svg>