<?xml version="1.0" standalone="no"?><!DOCTYPE svg PUBLIC "-//W3C//DTD SVG 1.1//EN" "http://www.w3.org/Graphics/SVG/1.1/DTD/svg11.dtd"><svg t="1584673058610" class="icon" viewBox="0 0 1024 1024" version="1.1" xmlns="http://www.w3.org/2000/svg" p-id="9306" xmlns:xlink="http://www.w3.org/1999/xlink" width="200" height="200"><defs><style type="text/css"></style></defs><path d="M475.136 773.12c0-20.992 2.56-40.96 6.656-60.416H214.016V141.312h450.048v376.832c17.92-5.12 36.864-8.704 56.32-9.728V112.64c0-47.104-37.888-85.504-84.48-85.504H242.176c-46.592 0-84.48 38.4-84.48 85.504v742.4c0 47.104 37.888 85.504 84.48 85.504h292.352c-36.864-45.568-59.392-103.936-59.392-167.424z m-148.48-703.488h225.28v28.672h-225.28v-28.672z m410.112 479.744c-121.856 0-220.16 100.352-220.672 223.232 0 123.392 98.816 223.744 220.672 223.744 121.344 0 220.16-100.352 220.16-223.232 0.512-123.392-98.304-223.744-220.16-223.744z m100.352 313.856c-3.584 2.56-8.192 4.096-14.336 4.096H762.88v17.408c0 5.12-2.048 10.24-6.656 15.36-4.096 5.12-9.728 7.168-16.896 6.656-6.656 0-12.8-1.536-16.896-4.608-4.608-3.072-7.168-8.704-7.68-16.896v-17.408h-58.368c-5.632 0-10.24-1.536-14.336-4.608-3.584-3.072-5.12-7.168-4.608-11.776 0-5.12 2.048-9.216 5.632-12.8 3.584-3.072 8.192-4.608 13.312-4.608h58.368V803.84h-58.368c-5.632 0-10.24-1.536-13.824-5.12s-5.12-7.68-5.12-12.288 2.048-9.216 5.632-12.8c3.584-4.096 8.192-6.144 13.312-6.144h58.368l1.024-18.432c-10.24-10.24-19.456-20.48-28.16-29.696-7.68-8.192-14.336-15.872-20.48-22.528l-12.8-12.288c-3.072-3.584-5.632-8.192-7.68-14.336s-1.024-12.288 3.584-18.432c5.12-5.632 11.264-7.168 18.944-4.608s13.312 6.144 17.92 10.24c2.048 3.072 6.144 7.168 11.776 12.8l17.92 18.432 23.04 23.552c9.728-9.216 18.432-17.92 26.624-25.088 6.656-6.144 13.824-12.8 20.48-18.944s11.776-10.24 14.336-12.8c5.12-4.608 10.752-7.168 17.408-7.168 6.144 0 11.264 2.56 15.36 7.68 7.68 8.704 4.608 18.944-8.704 30.208-3.584 3.072-8.704 8.192-15.36 15.36s-13.824 14.336-20.48 21.504c-8.192 8.704-16.896 17.92-26.624 27.136v16.384h55.808c8.192 0 13.824 2.048 17.408 5.632 3.584 3.584 5.632 8.192 5.632 12.8 0 5.12-1.536 9.728-5.12 13.312-3.584 3.584-9.216 5.12-16.896 4.608l-55.808 1.024-1.024 29.696h54.784c15.872 0 24.064 6.144 24.064 18.432 0.512 4.608-1.024 8.704-4.608 11.264z" p-id="9307"></path></svg>