<?xml version="1.0" standalone="no"?><!DOCTYPE svg PUBLIC "-//W3C//DTD SVG 1.1//EN" "http://www.w3.org/Graphics/SVG/1.1/DTD/svg11.dtd"><svg t="1584673298708" class="icon" viewBox="0 0 1024 1024" version="1.1" xmlns="http://www.w3.org/2000/svg" p-id="16514" xmlns:xlink="http://www.w3.org/1999/xlink" width="200" height="200"><defs><style type="text/css"></style></defs><path d="M776.234118 660.526848l29.352686 0c47.087787-2.050162 88.08803-29.570491 88.08803-48.517505 0-3.601771-30.036073-24.227281-88.08803-24.227281l0-315.017592c3.044271-1.056053 29.352686-24.227281 29.352686-24.227281L834.93949 54.658999 805.586804 30.431718l-29.352686 0-29.352686 24.227281L746.881432 248.53719c0 0 24.50703 22.48784 29.352686 24.227281l0 315.017592c-60.350896 0-88.08903 19.070903-88.08903 24.227281C688.145089 629.901303 716.970247 660.526848 776.234118 660.526848zM688.145089 660.526848c3.75963 64.482193 15.592022 292.716584 29.353685 339.245871 0 0 56.125684 23.543893 146.824374 0l29.351687-339.245871c-18.636293 14.225247-59.325815 24.227281-117.440716 24.227281C728.213168 684.754129 706.563577 674.876983 688.145089 660.526848zM864.323148 708.981409c-11.027114 85.541314-29.383658 242.336749-29.383658 242.336749-51.809554 15.715911-88.058057 0-88.058057 0-15.219356-125.796226-18.356544-152.259502-29.382659-242.336749 17.455352 13.604804 18.17071 24.227281 88.08803 24.227281C829.16067 733.20869 848.730127 724.13982 864.323148 708.981409zM554.39899 575.3582l-13.046304-11.802419L541.352686 345.446313l-29.134881-19.506513C512.372666 272.702526 512 30.431718 512 30.431718s3.013299-0.186833-16.834908-16.027631c-6.740957-5.405154-15.500104-8.200648-25.314306-8.200648-13.170193 0-25.997693 5.156377-42.212157 11.67853-14.288191 5.77782-32.117207 12.983361-54.480159 18.450459C228.384257 71.867572 219.065611 171.755024 218.413196 175.855348l0 145.363684-29.351687 24.227281 0 218.108469c-21.77348 0-58.736344 28.016883-58.736344 48.454561L130.325166 975.545439c0 20.437678 36.962863 48.454561 58.736344 48.454561l352.291176 0c29.445602 0 58.735345-28.016883 58.735345-48.454561L600.08803 612.010342C600.08803 591.572664 576.171471 575.3582 554.39899 575.3582zM541.352686 975.545439 189.061509 975.545439 189.061509 612.010342l58.704372-24.227281L247.765882 369.673593l29.352686 0c0 0 0-99.207062 0-169.590964 0-109.579763 176.145089-121.196349 176.145089-121.196349l0 290.787314 29.383658 0L482.647314 587.783062l58.704372 24.227281L541.351687 975.545439z" p-id="16515"></path></svg>