<?xml version="1.0" standalone="no"?><!DOCTYPE svg PUBLIC "-//W3C//DTD SVG 1.1//EN" "http://www.w3.org/Graphics/SVG/1.1/DTD/svg11.dtd"><svg t="1584625211677" class="icon" viewBox="0 0 1024 1024" version="1.1" xmlns="http://www.w3.org/2000/svg" p-id="11328" xmlns:xlink="http://www.w3.org/1999/xlink" width="200" height="200"><defs><style type="text/css"></style></defs><path d="M853.3 0 170.7 0C93.4 0 41.9 64.4 41.9 141.7l0 592.5c0 77.3 51.5 141.7 128.8 141.7l682.7 0c77.3 0 128.8-64.4 128.8-141.7L982.2 141.7C982.1 64.4 930.6 0 853.3 0zM285.3 785c-38.6 0-70-31.3-70-70 0-38.6 31.3-69.9 70-69.9 38.6 0 70 31.3 70 69.9C355.3 753.7 324 785 285.3 785zM731.3 785c-38.6 0-70-31.3-70-70 0-38.6 31.3-69.9 70-69.9 38.6 0 70 31.3 70 69.9C801.3 753.7 769.9 785 731.3 785zM853.3 489.5c0 22.1-16.6 51.5-38.6 51.5L209.3 541c-22.1 0-38.6-29.5-38.6-51.5L170.7 206.1c0-22.1 16.6-51.5 38.6-51.5l605.4 0c22.1 0 38.6 29.4 38.6 51.5l0 0L853.3 489.5z" p-id="11329"></path><path d="M299.5 940.3c0 48-32.5 83.7-80.5 83.7-48 0-86.9-38.9-86.9-86.9l0-35.4 167.4 0L299.5 940.3z" p-id="11330"></path><path d="M879.1 940.3c0 48-32.5 83.7-80.5 83.7-48 0-86.9-38.9-86.9-86.9l0-35.4 167.4 0L879.1 940.3z" p-id="11331"></path></svg>