<?xml version="1.0" standalone="no"?><!DOCTYPE svg PUBLIC "-//W3C//DTD SVG 1.1//EN" "http://www.w3.org/Graphics/SVG/1.1/DTD/svg11.dtd"><svg t="1584673546793" class="icon" viewBox="0 0 1024 1024" version="1.1" xmlns="http://www.w3.org/2000/svg" p-id="25883" xmlns:xlink="http://www.w3.org/1999/xlink" width="200" height="200"><defs><style type="text/css"></style></defs><path d="M502.4 456.8c-19.2 0-39.2-3.2-54.4-10.4L144.8 311.2c-23.2-7.2-35.2-20.8-35.2-38.4 0-16.8 12-31.2 31.2-41.6L448 92.8c15.2-7.2 38.4-10.4 58.4-10.4 19.2 0 39.2 3.2 54.4 10.4L864 224c19.2 10.4 31.2 24 31.2 41.6s-12 31.2-31.2 41.6L556.8 446.4c-12 6.4-35.2 10.4-54.4 10.4zM440 941.6c-12 0-19.2-3.2-31.2-7.2l-268-124.8c-31.2-13.6-58.4-44.8-58.4-69.6V397.6c0-24 19.2-41.6 46.4-41.6 8 0 19.2 3.2 27.2 7.2l272 124.8c31.2 13.6 58.4 44.8 58.4 69.6V896c0 28-23.2 45.6-46.4 45.6z m144 0c-27.2 0-46.4-17.6-46.4-41.6V560.8c0-28 23.2-55.2 58.4-69.6l272-128c8-3.2 19.2-7.2 27.2-7.2 27.2 0 46.4 17.6 46.4 41.6v339.2c0 28-23.2 55.2-58.4 69.6l-272 128c-8.8 4.8-17.6 7.2-27.2 7.2z" fill="" p-id="25884"></path></svg>