<?xml version="1.0" standalone="no"?><!DOCTYPE svg PUBLIC "-//W3C//DTD SVG 1.1//EN" "http://www.w3.org/Graphics/SVG/1.1/DTD/svg11.dtd"><svg t="1584024169747" class="icon" viewBox="0 0 1168 1024" version="1.1" xmlns="http://www.w3.org/2000/svg" p-id="8156" xmlns:xlink="http://www.w3.org/1999/xlink" width="228.125" height="200"><defs><style type="text/css"></style></defs><path d="M113.133929 505.072941a498.808471 498.808471 0 1 0 997.628989 0 498.808471 498.808471 0 1 0-997.616942 0z" fill="#BADC8E" p-id="8157"></path><path d="M312.669365 42.526118c-99.761694 0-181.392565 39.911906-181.392565 90.702306V586.691765L494.049882 387.168376V133.228424c0-50.7904-81.618824-90.690259-181.380517-90.690259z" fill="#FFFFFF" p-id="8158"></path><path d="M312.669365 242.061553c-112.459294 0-199.535435-47.164235-199.535436-108.833129 0-61.680941 87.076141-108.833129 199.535436-108.83313 112.459294 0 199.523388 47.164235 199.523388 108.83313 0 61.680941-88.8832 108.833129-199.523388 108.833129z m0-181.392565c-96.135529 0-163.249694 38.0928-163.249694 72.559436 0 34.454588 67.102118 72.559435 163.237647 72.559435s163.249694-38.0928 163.249694-72.559435c0-34.454588-67.102118-72.559435-163.237647-72.559436z" fill="#2A5082" p-id="8159"></path><path d="M312.669365 332.751812c-112.459294 0-199.535435-47.164235-199.535436-108.83313V133.240471h36.285742v90.690258c0 34.454588 67.102118 72.559435 163.237647 72.559436s163.249694-38.0928 163.249694-72.559436V133.240471h36.285741v90.690258c0 61.680941-88.8832 108.833129-199.523388 108.83313z" fill="#2A5082" p-id="8160"></path><path d="M494.049882 332.751812c-10.878494 0-18.142871-7.252329-18.14287-18.142871v-90.690259c0-10.878494 7.264376-18.130824 18.14287-18.130823s18.142871 7.252329 18.142871 18.130823v90.690259c0 9.071435-9.071435 18.142871-18.142871 18.142871z m-235.797082 87.064094h-3.626165C167.550494 407.118306 113.121882 365.399341 113.121882 314.608941v-90.690259c0-10.878494 7.264376-18.130824 18.142871-18.130823 10.890541 0 18.142871 7.252329 18.142871 18.130823v90.690259c0 29.033412 47.152188 58.054776 112.459294 68.933271 9.071435 1.807059 16.323765 10.878494 14.504658 19.949929-1.807059 9.071435-9.071435 16.323765-18.130823 16.323765z" fill="#2A5082" p-id="8161"></path><path d="M185.693365 488.749176c-1.807059 0-5.445271 0-7.25233-1.807058-41.718965-19.961976-65.295059-48.983341-65.295059-81.630871v-90.702306c0-10.878494 7.252329-18.130824 18.130824-18.130823 10.890541 0 18.142871 7.252329 18.142871 18.130823v90.702306c0 16.323765 16.323765 34.454588 43.526023 48.971294 9.071435 3.626165 12.6976 14.504659 9.071435 23.576094-3.626165 7.264376-10.878494 10.890541-16.323764 10.890541z" fill="#2A5082" p-id="8162"></path><path d="M131.2768 532.2752c-10.878494 0-18.142871-7.252329-18.142871-18.130824V314.608941c0-10.878494 7.264376-18.130824 18.142871-18.130823 10.890541 0 18.142871 7.252329 18.142871 18.130823v199.535435c0 9.059388-9.071435 18.130824-18.142871 18.130824z" fill="#2A5082" p-id="8163"></path><path d="M1141.603388 443.404047l-730.991435 384.542118-384.542118-203.1616 730.991436-382.735059z" fill="#E9EAEB" p-id="8164"></path><path d="M410.611953 846.064941c-3.626165 0-5.445271 0-9.071435-1.807059L18.817506 641.108329c-5.445271-3.626165-9.071435-9.071435-9.071435-16.323764s3.626165-12.6976 9.071435-16.323765l730.991435-382.735059c5.433224-3.614118 10.878494-3.614118 16.323765 0l384.542118 201.342494c5.433224 3.638212 9.059388 9.071435 9.059388 16.335812 0 7.252329-3.614118 12.685553-9.071436 16.323765L419.683388 842.450824a13.854118 13.854118 0 0 1-9.071435 3.614117zM65.981741 624.796612l346.449318 181.380517L1105.317647 443.404047 758.868329 262.011482 65.981741 624.784565z" fill="#2A5082" p-id="8165"></path><path d="M410.611953 934.960188c-3.626165 0-5.445271 0-9.071435-1.819106L18.817506 729.991529C9.758118 724.546259 6.119906 713.667765 11.565176 704.596329c5.445271-9.071435 16.323765-12.6976 25.3952-7.252329l375.470683 197.704282 721.907953-379.096847c9.071435-5.445271 19.961976-1.807059 25.3952 7.25233 5.445271 9.071435 1.807059 19.961976-7.25233 25.3952l-732.798494 384.542117c-1.807059 0-5.445271 1.807059-9.071435 1.807059z" fill="#2A5082" p-id="8166"></path><path d="M410.611953 1023.831341c-3.626165 0-5.445271 0-9.071435-1.807059L18.817506 818.862682C9.758118 813.429459 6.119906 802.538918 11.565176 793.467482c5.445271-9.059388 16.323765-12.685553 25.3952-7.252329l375.470683 197.716329 721.907953-379.096847c9.071435-5.445271 19.961976-1.807059 25.3952 7.25233 5.445271 9.071435 1.807059 19.949929-7.25233 25.3952l-732.798494 384.542117c-1.807059 0-5.445271 1.807059-9.071435 1.807059z" fill="#2A5082" p-id="8167"></path><path d="M936.634729 430.706447L782.456471 349.075576c-25.3952 12.6976-56.235671 10.890541-76.1856 0L231.038494 599.389365c25.3952 12.6976 21.769035 29.033412 0 39.899859l154.178259 81.63087c21.769035-10.878494 50.7904-12.6976 76.1856 0l475.232376-248.494682c-19.949929-12.6976-25.3952-29.033412 0-41.718965z" fill="#FFFFFF" p-id="8168"></path><path d="M461.402353 740.870024l-7.252329-5.445271c-18.142871-9.059388-41.718965-9.059388-59.861836 0l-9.071435 3.638212-192.271059-101.5808 30.840471-16.323765c3.626165-1.807059 5.445271-3.626165 5.44527-3.626165-1.819106-1.807059-3.638212-1.807059-7.264376-3.626164l-29.021365-14.516706 513.325177-270.263718 9.071435 3.626165c14.504659 7.252329 38.0928 10.878494 59.861835 0l9.059388-3.626165 192.271059 101.5808-30.84047 16.323765c-3.614118 1.807059-5.433224 3.614118-7.25233 3.614117 1.807059 1.819106 3.626165 1.819106 7.264377 3.638212l30.84047 16.323765L461.402353 740.870024z m-38.0928-48.971295c12.6976 0 25.3952 1.807059 38.0928 7.25233l444.391906-232.170918c-3.614118-5.445271-3.614118-10.890541-3.614118-16.323765 0-5.445271 1.807059-10.890541 3.614118-16.323764l-123.337788-65.295059c-23.588141 9.059388-52.609506 9.059388-76.1856 0L261.878965 603.003482c3.614118 5.445271 3.614118 10.890541 3.614117 16.323765 0 5.445271-1.807059 10.890541-3.614117 16.323765l123.337788 65.295059c12.6976-7.252329 25.3952-9.059388 38.0928-9.059389z" fill="#2A5082" p-id="8169"></path><path d="M748.001882 423.454118h36.261647v36.261647h-36.261647v-36.261647zM385.204706 604.822588h36.273694v36.273694h-36.261647v-36.273694z" fill="#2A5082" p-id="8170"></path><path d="M653.673412 497.808565c41.718965 21.769035 45.345129 56.235671 5.433223 78.004706-38.080753 19.949929-105.194918 18.130824-146.913882-3.626165-41.718965-21.769035-45.345129-56.235671-5.445271-78.004706 39.899859-19.949929 105.206965-18.130824 146.92593 3.626165z" fill="#FFFFFF" p-id="8171"></path><path d="M591.992471 606.641694c-30.840471 0-63.488-7.252329-88.871153-19.949929-27.214306-14.504659-43.538071-34.454588-43.538071-58.04273 0-12.6976 5.445271-34.454588 38.0928-50.7904 43.538071-23.576094 116.085459-21.769035 165.0688 3.626165 27.202259 14.516706 43.526024 34.466635 43.526024 58.042729 0 12.6976-5.445271 34.466635-38.0928 50.7904-19.949929 10.890541-47.152188 16.323765-76.173553 16.323765z m-18.130824-108.833129c-21.769035 0-43.538071 3.638212-59.861835 12.6976-10.878494 5.445271-18.130824 12.6976-18.130824 19.961976 0 5.433224 5.433224 16.323765 23.576094 25.3952 36.273694 19.949929 96.135529 21.756988 130.590118 3.614118 10.890541-5.433224 18.142871-12.685553 18.142871-19.94993 0-5.433224-5.433224-16.323765-23.576095-25.383153-18.142871-10.890541-45.345129-16.335812-70.740329-16.335811z" fill="#2A5082" p-id="8172"></path><path d="M675.4304 684.634353L276.383624 459.715765 457.788235 369.037553 874.965835 586.691765v219.473317l-199.535435 107.026071z" fill="#D7CAFF" p-id="8173"></path><path d="M675.4304 931.321976c-3.614118 0-7.252329 0-9.059388-1.807058-5.445271-3.626165-9.071435-9.071435-9.071436-16.323765V695.524894L267.312188 476.051576c-5.433224-3.626165-9.059388-9.071435-9.059388-16.323764 0-7.264376 3.614118-12.6976 10.878494-16.323765l181.380518-90.702306a25.178353 25.178353 0 0 1 16.335812 0l417.189647 217.666259c5.433224 3.626165 9.059388 9.071435 9.059388 16.323765v219.473317c0 7.264376-3.614118 12.6976-9.071435 16.335812L684.513882 929.514918c-3.614118 0-7.252329 1.807059-9.071435 1.807058zM314.476424 459.727812L684.513882 668.322635c5.445271 3.614118 9.071435 9.059388 9.071436 16.323765v197.704282l163.249694-87.064094V597.582306L457.776188 388.987482 314.476424 459.715765z" fill="#2A5082" p-id="8174"></path></svg>