<?xml version="1.0" standalone="no"?><!DOCTYPE svg PUBLIC "-//W3C//DTD SVG 1.1//EN" "http://www.w3.org/Graphics/SVG/1.1/DTD/svg11.dtd"><svg t="1584603585512" class="icon" viewBox="0 0 1357 1024" version="1.1" xmlns="http://www.w3.org/2000/svg" p-id="4458" xmlns:xlink="http://www.w3.org/1999/xlink" width="265.0390625" height="200"><defs><style type="text/css"></style></defs><path d="M322.519685 878.441774h671.350187c6.789888 0 12.306672-5.516784 12.306672-12.306672 0-6.789888-5.516784-12.306672-12.306672-12.306673H322.519685c-6.789888 0-12.306672 5.516784-12.306672 12.306673-0.424368 6.789888 5.092416 12.306672 12.306672 12.306672zM213.457107 283.477828h18.247825V301.301285c0 6.36552 5.516784 11.882304 11.882304 11.882304 6.36552 0 11.882304-5.516784 11.882304-11.882304v-18.247825h18.247824c6.36552 0 11.882304-5.516784 11.882304-11.882304 0-6.36552-5.516784-11.882304-11.882304-11.882304h-18.247824v-18.247824c0-6.36552-5.516784-11.882304-11.882304-11.882304-6.36552 0-11.882304 5.516784-11.882304 11.882304v18.247824h-18.247825c-6.36552 0-11.882304 5.516784-11.882304 11.882304 0 6.789888 5.516784 12.306672 11.882304 12.306672zM1051.58392 574.169913h11.882305v11.882304c0 4.24368 3.394944 7.638624 7.638624 7.638624s7.638624-3.394944 7.638624-7.638624v-11.882304h11.882304c4.24368 0 7.638624-3.394944 7.638624-7.638624s-3.394944-7.638624-7.638624-7.638624h-11.882304v-11.882304c0-4.24368-3.394944-7.638624-7.638624-7.638625s-7.638624 3.394944-7.638624 7.638625v11.882304h-11.882305c-4.24368 0-7.638624 3.394944-7.638624 7.638624-0.424368 4.24368 2.970576 7.638624 7.638624 7.638624zM1304.082884 962.042271h-63.230833c-6.789888 0-12.306672 5.516784-12.306672 12.306672 0 6.789888 5.516784 12.306672 12.306672 12.306672h63.230833c6.789888 0 12.306672-5.516784 12.306673-12.306672 0-6.789888-5.516784-12.306672-12.306673-12.306672zM101.423954 962.042271h-63.655201c-6.789888 0-12.306672 5.516784-12.306673 12.306672 0 6.789888 5.516784 12.306672 12.306673 12.306672h63.230833c6.789888 0 12.306672-5.516784 12.306672-12.306672 0.424368-6.789888-5.092416-12.306672-11.882304-12.306672zM207.940323 878.441774h63.230833c6.789888 0 12.306672-5.516784 12.306672-12.306672 0-6.789888-5.516784-12.306672-12.306672-12.306673H207.940323c-6.789888 0-12.306672 5.516784-12.306672 12.306673-0.424368 6.789888 5.092416 12.306672 12.306672 12.306672zM464.258599 962.042271h-17.823456c-6.789888 0-12.306672 5.516784-12.306672 12.306672 0 6.789888 5.516784 12.306672 12.306672 12.306672h17.823456c6.789888 0 12.306672-5.516784 12.306672-12.306672 0.424368-6.789888-5.516784-12.306672-12.306672-12.306672zM1168.70949 962.042271h-653.52673c-6.789888 0-12.306672 5.516784-12.306672 12.306672 0 6.789888 5.516784 12.306672 12.306672 12.306672h653.52673c6.789888 0 12.306672-5.516784 12.306672-12.306672 0.424368-6.789888-5.092416-12.306672-12.306672-12.306672zM400.603398 962.042271H162.108579c-6.789888 0-12.306672 5.516784-12.306673 12.306672 0 6.789888 5.516784 12.306672 12.306673 12.306672h238.494819c6.789888 0 12.306672-5.516784 12.306672-12.306672 0.424368-6.789888-5.092416-12.306672-12.306672-12.306672zM792.295068 718.879403c49.226689 0 89.117281-39.890593 89.117282-89.117281 0-24.188976-9.760464-45.831745-25.462081-61.957729-3.819312-3.819312-8.062992-7.638624-12.306672-10.6092-14.428512-10.184832-32.251969-16.125984-51.348529-16.125985-49.226689 0-89.117281 39.890593-89.117281 89.117282 0 15.701616 3.819312 30.130128 11.033568 42.861169 2.546208 4.24368 5.092416 8.48736 8.48736 12.306672 16.125984 20.369664 41.163697 33.525073 69.596353 33.525072z m-5.092416-76.810609v-70.869457c0-3.819312 3.394944-7.214256 7.214256-7.214256 3.819312 0 7.214256 2.970576 7.214257 7.214256v78.508081c0 3.819312-3.394944 7.214256-7.214257 7.214256-1.273104 0-2.546208-0.424368-3.394944-0.848736-2.12184-1.273104-3.819312-3.394944-3.819312-6.36552v-7.638624z m7.214256 30.130129c5.092416 0 9.336096 4.24368 9.336097 9.336096 0 5.092416-4.24368 9.336096-9.336097 9.336096s-9.336096-4.24368-9.336096-9.336096c0-5.516784 4.24368-9.336096 9.336096-9.336096z" p-id="4459"></path><path d="M448.132615 761.740572H874.198094c27.58392 0 50.075425-22.491504 50.075424-50.075425V141.314546c0-27.58392-22.491504-50.075425-50.075424-50.075425h-81.478658v-13.155408h-86.146705c-2.970576-21.642768-21.642768-38.617489-44.134273-38.617488-22.491504 0-41.163697 16.550352-44.134272 38.617488h-88.268546v13.155408h-81.478657c-27.58392 0-50.075425 22.491504-50.075425 50.075425v570.350601c-0.424368 27.58392 22.067136 50.075425 49.651057 50.075425z m93.785329-645.463738v-25.462081h81.05429c3.394944 0 6.36552-2.970576 6.36552-6.36552 0-17.823456 14.428512-32.251969 32.251968-32.251968 17.823456 0 32.251969 14.428512 32.251969 32.251968 0 3.394944 2.970576 6.36552 6.36552 6.36552h79.356817v53.894737c0 2.12184-0.424368 4.24368-0.848736 5.941152-1.273104 5.092416-4.668048 9.336096-8.911728 12.306673-3.819312 2.546208-8.062992 4.24368-13.155408 4.24368H564.409449c-4.668048 0-9.336096-1.697472-13.155408-4.24368-4.24368-2.970576-7.214256-7.214256-8.911729-12.306673-0.424368-1.697472-0.848736-3.819312-0.848736-5.941152v-28.432656z m-118.823041 25.037712c0-13.579776 11.033568-25.037712 25.037712-25.037712h81.478657v28.432656c0 2.12184 0.424368 4.24368 0.424368 5.941152h-75.537505v547.010361H717.181931c-2.970576-3.819312-5.941152-8.062992-8.48736-12.306672h-241.889764v-521.972648h67.898881c6.36552 10.184832 17.399088 16.550352 29.705761 16.550352h192.663075c12.73104 0 23.764608-6.789888 29.70576-16.550352h67.898881v385.32615c4.668048 2.970576 8.48736 6.789888 12.306673 10.6092V150.650642h-75.961874c0.424368-1.697472 0.424368-3.819312 0.424368-5.941152v-28.432656H874.198094c13.579776 0 25.037712 11.033568 25.037712 25.037712v570.350601c0 13.579776-11.033568 25.037712-25.037712 25.037713H448.132615c-13.579776 0-25.037712-11.033568-25.037712-25.037713V141.314546z" p-id="4460"></path><path d="M660.740986 79.781185m-14.85288 0a14.85288 14.85288 0 1 0 29.705761 0 14.85288 14.85288 0 1 0-29.705761 0Z" p-id="4461"></path><path d="M543.191048 265.230004h207.091588v38.617489H543.191048zM543.191048 359.015334h134.949027v38.617488H543.191048zM543.191048 452.800663h85.722338v38.617489H543.191048z" p-id="4462"></path></svg>