<?xml version="1.0" standalone="no"?><!DOCTYPE svg PUBLIC "-//W3C//DTD SVG 1.1//EN" "http://www.w3.org/Graphics/SVG/1.1/DTD/svg11.dtd"><svg t="1584673079703" class="icon" viewBox="0 0 1024 1024" version="1.1" xmlns="http://www.w3.org/2000/svg" p-id="10675" xmlns:xlink="http://www.w3.org/1999/xlink" width="200" height="200"><defs><style type="text/css"></style></defs><path d="M788.537853 487.412429L512 20.248588 235.462147 481.337853c-36.736723 55.249718-61.613559 122.937853-61.613559 190.625989C173.848588 856.225989 327.737853 1003.751412 512 1003.751412s338.151412-147.525424 338.151412-325.712994c0-73.762712-24.587571-135.376271-61.613559-190.625989z m-134.508474 119.466667l-200.750283 208.271186c-3.471186 5.20678-9.256497 8.388701-15.620339 8.388701-10.413559 0-18.80226-8.099435-18.80226-18.223729v-1.446327l0.289266-0.578532c0.289266-2.892655 1.157062-5.496045 2.892655-8.099435l42.8113-120.912994h-83.308475v-0.289265c-0.867797 0.289266-1.735593 0.289266-2.892655 0.289265-7.810169 0-14.463277-6.363842-14.463277-14.174011 0-4.338983 2.024859-8.677966 5.78531-11.281356l172.112995-196.989831c3.471186-5.20678 9.256497-8.388701 15.620339-8.3887 10.413559 0 18.80226 8.099435 18.80226 18.223729 0 0.578531 0 0.867797-0.289266 1.446327h0.289266l-0.289266 1.157062c0 0.867797-0.289266 1.446328-0.578531 2.314125l-25.166102 114.838418H642.169492v0.289265c0.867797-0.289266 1.735593-0.289266 2.892655-0.289265 7.810169 0 14.463277 6.363842 14.463277 14.174011 0.289266 4.338983-2.024859 8.677966-5.496045 11.281356z" p-id="10676"></path></svg>