<?xml version="1.0" standalone="no"?><!DOCTYPE svg PUBLIC "-//W3C//DTD SVG 1.1//EN" "http://www.w3.org/Graphics/SVG/1.1/DTD/svg11.dtd"><svg t="1584673488489" class="icon" viewBox="0 0 1030 1024" version="1.1" xmlns="http://www.w3.org/2000/svg" p-id="22552" xmlns:xlink="http://www.w3.org/1999/xlink" width="201.171875" height="200"><defs><style type="text/css"></style></defs><path d="M876.032 696.32v239.104l107.52 31.232V696.32h-107.52z m53.76 225.28c-14.848 0-26.624-11.776-26.624-26.624 0-14.848 11.776-26.624 26.624-27.136 14.848 0 26.624 11.776 26.624 26.624 0.512 14.848-11.776 27.136-26.624 27.136zM397.312 971.776h-1.536c-17.92-0.512-55.808-7.168-180.224-62.464-3.584-1.536-6.656-4.096-9.216-7.168C28.16 686.592 24.576 667.136 22.528 655.36c-1.536-8.192-2.048-28.16 22.016-45.056 25.088-17.408 71.168-26.112 97.792-10.24 9.728 5.632 25.088 20.48 56.832 50.176 38.4 36.864 103.424 97.792 129.024 107.52 26.112 9.728 114.176-11.264 163.328-27.648-14.336-8.192-31.232-16.896-44.032-23.552-58.88-30.72-71.68-37.888-75.776-54.272-2.56-11.776 1.024-24.576 11.264-37.888 10.24-13.312 36.864-38.912 65.024-39.936 33.28-1.024 150.016 43.52 151.04 44.032 20.48 8.192 43.008 27.136 65.024 45.568 10.752 9.216 27.648 23.04 32.768 25.088 16.384 6.656 38.912 6.656 68.608 4.608 22.016-1.536 43.52-4.608 63.488-9.216 7.68-1.536 15.36 0 21.504 5.12 6.144 4.608 9.728 12.288 9.728 19.968v210.432c0 9.216-4.608 17.408-12.288 22.016-7.68 4.608-17.408 4.608-25.088 0.512-23.04-12.288-43.52-18.944-60.928-18.944-13.312 0-91.648 11.264-160.768 21.504-108.544 16.384-181.76 26.624-203.776 26.624z m-155.136-107.008c108.032 47.616 143.36 55.296 155.136 55.808 17.408 0.512 116.736-14.336 196.608-25.6 93.696-13.824 152.064-22.016 167.936-22.016 14.848 0 30.72 2.56 47.616 8.192v-140.288c-13.312 2.048-26.624 3.584-40.448 4.608-36.352 2.56-65.536 2.048-91.136-8.192-12.288-5.12-25.6-15.872-46.592-33.28-16.896-14.336-38.4-32.256-51.2-36.864-38.4-15.36-115.712-40.448-130.56-40.448-4.608 0.512-13.312 6.656-19.456 12.8 11.776 6.656 28.16 15.36 41.472 22.016 71.168 37.376 89.6 48.64 94.208 67.072 2.048 8.192 0.512 16.384-4.608 23.04-12.8 17.408-74.752 35.328-110.592 44.544-67.072 16.896-113.664 20.48-139.776 10.752-33.28-12.288-83.968-58.88-146.432-118.272-18.432-17.408-41.472-39.424-47.616-43.008-7.68-3.584-29.696 1.024-39.936 6.656 8.704 15.36 43.52 65.536 165.376 212.48z m-126.464-220.672zM433.152 38.4c-127.488 0-231.424 103.424-231.424 231.424 0 127.488 103.424 231.424 231.424 231.424s231.424-103.424 231.424-231.424c-0.512-128-103.936-231.424-231.424-231.424z m0 413.696c-100.864 0-182.272-81.92-182.272-182.272C250.88 168.96 332.8 87.552 433.152 87.552s182.272 81.92 182.272 182.272-81.408 182.272-182.272 182.272z" p-id="22553"></path><path d="M491.52 264.192c-2.048-1.536-16.896-6.656-43.52-16.896V172.544c8.704 1.024 15.36 3.584 20.48 7.168 8.192 5.632 13.312 15.872 15.36 30.208h38.912c-3.584-25.088-11.776-43.008-26.112-53.76-11.776-9.728-28.16-15.36-48.64-16.896v-28.16h-22.528v28.16c-19.968 1.536-35.84 6.656-48.64 15.872-17.408 11.776-26.112 29.184-26.112 51.2 0 25.088 11.776 44.544 35.328 57.344l39.424 14.336v79.872c-10.752-1.536-18.944-4.608-24.576-10.24-7.68-7.68-12.288-20.48-13.824-38.4H348.16c2.048 28.16 10.24 48.64 24.576 62.464 12.288 11.776 30.208 17.92 53.248 19.968v30.208h22.528v-30.208c20.992-1.536 37.888-6.656 51.2-15.36 18.432-12.288 27.648-30.208 27.648-54.272 0-25.6-12.288-44.544-35.84-57.856z m-66.048-25.088c-23.04-8.704-34.816-19.968-34.816-32.768 0-12.8 4.608-22.016 13.824-27.136 5.12-3.584 12.288-5.632 20.992-6.656v66.56z m47.616 110.08c-6.656 4.608-15.36 7.168-25.088 8.704v-71.68c1.536 0.512 2.56 0.512 3.584 1.536 23.552 8.192 35.328 19.968 35.328 35.328 0.512 10.752-4.608 19.968-13.824 26.112z" p-id="22554"></path></svg>