<?xml version="1.0" standalone="no"?><!DOCTYPE svg PUBLIC "-//W3C//DTD SVG 1.1//EN" "http://www.w3.org/Graphics/SVG/1.1/DTD/svg11.dtd"><svg t="1584672833975" class="icon" viewBox="0 0 1024 1024" version="1.1" xmlns="http://www.w3.org/2000/svg" p-id="3277" xmlns:xlink="http://www.w3.org/1999/xlink" width="200" height="200"><defs><style type="text/css"></style></defs><path d="M863.81 157.56s-94.98 84.64-176.03 4.4S448.15-3.48 362.93 151.38l1.91-2.74L745.08 369.4s130.95 50.32 118.73-211.84zM741.2 411.57L362.17 193.56c-37.82-22.37-86.62-9.84-108.99 27.98-0.46 0.78-0.91 1.56-1.34 2.35-21.39 40.35-6.02 90.4 34.33 111.79 0.14 0.07 0.28 0.15 0.42 0.22L665.6 553.95c37.86 22.34 86.66 9.77 109-28.09 0.45-0.77 0.9-1.55 1.32-2.33 21.38-40.34 6.01-90.37-34.33-111.75-0.12-0.07-0.25-0.14-0.39-0.21zM261.53 367.8c-31.69-18.22-33.74 71.98-44.51 146.94l-56.43 394.01c-3.36 23.1 0.67 28.3 7.79 32.27l24.28 14.04c16.65 9.52 21.61-0.53 33.74-8.8l327.12-239.52c62.23-45.61 140.27-90.14 109.26-107.91L261.53 367.8z" p-id="3278"></path></svg>