<?xml version="1.0" standalone="no"?><!DOCTYPE svg PUBLIC "-//W3C//DTD SVG 1.1//EN" "http://www.w3.org/Graphics/SVG/1.1/DTD/svg11.dtd"><svg t="1584625180196" class="icon" viewBox="0 0 1175 1024" version="1.1" xmlns="http://www.w3.org/2000/svg" p-id="9949" xmlns:xlink="http://www.w3.org/1999/xlink" width="229.4921875" height="200"><defs><style type="text/css"></style></defs><path d="M1145.362963 238.933333L929.185185 22.755556c-15.17037-15.17037-37.925926-22.755556-60.681481-22.755556h-121.362963l-7.585185 3.792593c-41.718519 22.755556-98.607407 37.925926-155.496297 37.925926s-109.985185-11.377778-155.496296-37.925926l-7.585185-3.792593h-113.777778c-30.340741 0-56.888889 15.17037-68.266667 41.718519L22.755556 254.103704c-15.17037 15.17037-22.755556 37.925926-22.755556 56.888889 0 22.755556 7.585185 41.718519 22.755556 56.888888l155.496296 155.496297c11.377778 11.377778 30.340741 22.755556 49.303704 22.755555v379.25926c0 41.718519 34.133333 79.644444 79.644444 79.644444h553.718519c41.718519 0 79.644444-34.133333 79.644444-79.644444V530.962963c18.962963 0 34.133333-11.377778 49.303704-22.755556l155.496296-155.496296c30.340741-34.133333 30.340741-83.437037 0-113.777778z m-49.303704 60.681482L940.562963 455.111111l-3.792593 3.792593h-3.792592L872.296296 402.014815v523.377778c0 3.792593-3.792593 7.585185-7.585185 7.585185H307.2c-3.792593 0-3.792593 0-3.792593-3.792593l-3.792592-3.792592V417.185185l-60.681482 53.096296h-3.792592s-3.792593 0-3.792593-3.792592l-159.288889-151.703704-3.792592-3.792592s0-3.792593 3.792592-3.792593l216.177778-216.177778 7.585185-7.585185 3.792593-7.585185c0-3.792593 3.792593-3.792593 7.585185-3.792593h98.607407c49.303704 26.548148 113.777778 41.718519 178.251852 41.718519 64.474074 0 128.948148-15.17037 178.251852-41.718519H876.088889l216.177778 216.177778c7.585185 3.792593 7.585185 7.585185 3.792592 11.377778z" fill="#666666" p-id="9950"></path></svg>