<?xml version="1.0" standalone="no"?><!DOCTYPE svg PUBLIC "-//W3C//DTD SVG 1.1//EN" "http://www.w3.org/Graphics/SVG/1.1/DTD/svg11.dtd"><svg t="1584673104776" class="icon" viewBox="0 0 1024 1024" version="1.1" xmlns="http://www.w3.org/2000/svg" p-id="12072" xmlns:xlink="http://www.w3.org/1999/xlink" width="200" height="200"><defs><style type="text/css"></style></defs><path d="M819.6 257.6H670.8V149.4c0-22.4-18.2-40.6-40.6-40.6H386.8c-22.4 0-40.6 18.2-40.6 40.6v108.2H197.4c-44.8 0-81.2 36.3-81.2 81.2v13.5h784.6v-13.5c0-44.9-36.4-81.2-81.2-81.2z m-229.9 0H427.3V190h162.3v67.6zM116.2 812.2c0 44.8 36.3 81.2 81.2 81.2h622.3c44.8 0 81.2-36.3 81.2-81.2V433.4H116.2v378.8z m284.1-189.4h67.6v-67.6c0-22.4 18.2-40.6 40.6-40.6 22.4 0 40.6 18.2 40.6 40.6v67.6h67.6c22.4 0 40.6 18.2 40.6 40.6S639.1 704 616.7 704h-67.6v67.6c0 22.4-18.2 40.6-40.6 40.6-22.4 0-40.6-18.2-40.6-40.6V704h-67.6c-22.4 0-40.6-18.2-40.6-40.6s18.2-40.6 40.6-40.6z" p-id="12073"></path></svg>