<?xml version="1.0" standalone="no"?><!DOCTYPE svg PUBLIC "-//W3C//DTD SVG 1.1//EN" "http://www.w3.org/Graphics/SVG/1.1/DTD/svg11.dtd"><svg t="1584625229117" class="icon" viewBox="0 0 1024 1024" version="1.1" xmlns="http://www.w3.org/2000/svg" p-id="12802" xmlns:xlink="http://www.w3.org/1999/xlink" width="200" height="200"><defs><style type="text/css"></style></defs><path d="M0.064 695.872c1.664-86.656 18.88-170.624 47.104-252.416 22.912-66.688 52.608-130.112 95.488-186.496 27.008-35.776 58.048-67.072 99.136-86.72 35.648-17.344 72.064-23.168 110.208-6.144 26.496 12.032 53.824 22.08 80.64 33.536 56.512 24.32 112.384 21.76 168.128-3.072 22.144-9.792 44.864-18.304 66.944-28.736 44.224-20.672 86.272-13.12 126.976 9.536 44.928 25.088 77.696 62.72 105.6 105.216 51.008 77.056 82.624 162.56 103.744 252.16 14.72 62.784 22.144 126.208 19.392 190.656-1.344 31.36-6.208 62.4-19.136 91.52-19.84 44.8-53.184 61.056-100.736 49.344-29.056-7.104-54.656-21.696-78.272-39.168-38.784-28.736-76.416-58.816-115.264-87.552-42.56-31.488-87.744-59.008-140.352-69.824-87.104-17.792-167.744-1.408-238.272 53.312-34.432 26.56-65.344 57.664-97.792 86.848-30.528 27.2-63.36 50.624-104.448 58.56-13.248 2.56-27.008 4.096-40.384 3.84-34.88-0.832-55.296-22.4-68.544-51.776-16.192-35.84-19.264-74.176-20.16-112.896C-0.064 702.4 0.064 699.136 0.064 695.872zM295.616 556.992c77.248 0 139.264-61.952 139.776-139.008 0.384-77.056-62.528-140.224-139.904-140.48-76.352-0.192-139.456 62.784-139.84 139.584C155.328 494.016 218.176 556.992 295.616 556.992zM792.704 355.84c0.192-17.216-13.312-31.232-30.144-31.616-17.344-0.384-32 13.952-31.936 31.04 0.128 16.96 13.888 30.592 30.976 30.656C778.944 385.984 792.576 372.864 792.704 355.84zM697.536 448.64c0.064-17.024-13.76-31.04-30.656-31.04-16.832-0.064-31.04 13.568-31.424 30.336-0.448 17.088 13.76 31.424 31.232 31.296C683.968 479.104 697.408 465.728 697.536 448.64zM854.528 479.232c17.472 0.064 31.04-12.992 31.36-30.016 0.256-17.152-13.12-31.232-29.952-31.616-17.344-0.576-32 13.632-32.128 30.784C823.808 465.216 837.632 479.04 854.528 479.232zM792.704 541.632c0-17.024-13.888-30.976-30.656-30.848-16.96 0-31.04 13.76-31.36 30.528-0.256 17.344 13.952 31.36 31.424 31.232C779.328 572.288 792.768 558.848 792.704 541.632z" p-id="12803"></path><path d="M295.68 494.784c-43.136 0.064-78.016-34.624-77.824-77.312 0.128-42.56 34.688-77.312 77.184-77.824 42.624-0.384 77.824 34.496 78.208 77.44C373.504 460.16 338.944 494.784 295.68 494.784z" p-id="12804"></path></svg>