<?xml version="1.0" standalone="no"?><!DOCTYPE svg PUBLIC "-//W3C//DTD SVG 1.1//EN" "http://www.w3.org/Graphics/SVG/1.1/DTD/svg11.dtd"><svg t="1584625261148" class="icon" viewBox="0 0 1024 1024" version="1.1" xmlns="http://www.w3.org/2000/svg" p-id="14215" xmlns:xlink="http://www.w3.org/1999/xlink" width="200" height="200"><defs><style type="text/css"></style></defs><path d="M909.99808 524.38016c0-58.28096-43.3664-105.69728-96.67072-105.69728-3.76832 0-7.5008 0.24576-11.1872 0.7168a309.02272 309.02272 0 0 0 7.08096-59.36128c0.08704-0.93696 0.08704-1.89952 0.04096-2.86208 0.00512-1.34656 0.04608-2.688 0.04608-4.02944 0-2.43712-0.44032-4.75648-1.23392-6.912l0.04608 0.12288-28.04736-251.69408a20.13184 20.13184 0 0 0-19.98848-17.87904H244.33664a20.13184 20.13184 0 0 0-19.98336 17.78688l-29.14816 261.36064a20.21376 20.21376 0 0 0 0.81408 8.32c2.68288 77.67552 34.25792 150.46144 89.6 205.80864 53.1712 53.1712 122.43456 84.40832 196.80256 89.18528v182.72256h-157.7472a20.864 20.864 0 0 0 0 41.728h350.68928a20.864 20.864 0 0 0 0-41.728H522.6496v-182.72256a305.14176 305.14176 0 0 0 97.4336-22.64576c42.14272 47.97952 102.53824 94.8736 105.66656 97.29536a20.25472 20.25472 0 0 0 12.416 4.31616 20.224 20.224 0 0 0 12.416-4.31616c3.87072-2.98496 95.11424-73.82528 131.38944-130.75456 12.4928-19.59936 28.02688-43.99104 28.02688-78.76096z m-171.83232 190.30528s-55.81824-43.136-96.7424-87.84896a307.32288 307.32288 0 0 0 78.03392-56.77568c35.68128-35.6864 61.45024-78.62784 76.01152-125.48096a69.02272 69.02272 0 0 1 17.86368-2.37568c41.4976 0 75.15648 36.79744 75.15648 82.176 0 26.27584-11.41248 45.29664-24.16128 65.3056-34.54976 54.20544-126.16192 124.99968-126.16192 124.99968z" fill="" p-id="14216"></path><path d="M738.01728 117.01248H258.2528l-16.87552 151.3472c69.54496-43.15136 161.39264-36.57728 218.63936 16.92672a20.224 20.224 0 0 1 7.86944 4.7872c57.472 57.45664 150.97344 57.45664 208.4352 0a20.03456 20.03456 0 0 1 14.21312-5.888c5.5552 0 10.58816 2.24768 14.22848 5.89312a20.03456 20.03456 0 0 1 5.888 14.21312 20.0448 20.0448 0 0 1-5.89312 14.22848c-36.56704 36.56704-84.61312 54.85056-132.64896 54.85056-44.85632 0-89.70752-15.93856-125.22496-47.80544a19.62496 19.62496 0 0 1-2.36544-1.9968c-57.472-57.45664-150.97344-57.45664-208.4352 0-0.31232 0.3072-0.64512 0.57856-0.9728 0.86528l-3.20512 28.67712c0 146.9696 119.57248 266.5472 266.55232 266.5472h0.01536a265.23648 265.23648 0 0 0 91.904-16.36352l-0.1024-0.15872c-12.48768-19.59936-28.01664-43.99104-28.01664-78.76096 0-58.28096 43.3664-105.69728 96.67072-105.69728 29.58336 0 57.07264 14.82752 75.1616 39.29088a101.4272 101.4272 0 0 1 15.99488-17.09056 264.94976 264.94976 0 0 0 14.86336-82.24256l-26.9312-241.62304z" fill="#E2E2E2" p-id="14217"></path><path d="M657.15712 435.79904c-41.50784 0-75.15648 36.79744-75.15648 82.176 0 26.27584 11.40736 45.29664 24.15104 65.3056 1.03424 1.62304 2.12992 3.26656 3.26144 4.9152 48.25088-22.61504 88.61184-59.28448 115.88608-104.69376-11.92448-28.1344-37.90848-47.70304-68.14208-47.70304z" fill="#E12321" p-id="14218"></path></svg>