<?xml version="1.0" standalone="no"?><!DOCTYPE svg PUBLIC "-//W3C//DTD SVG 1.1//EN" "http://www.w3.org/Graphics/SVG/1.1/DTD/svg11.dtd"><svg t="1584625326684" class="icon" viewBox="0 0 1024 1024" version="1.1" xmlns="http://www.w3.org/2000/svg" p-id="17174" xmlns:xlink="http://www.w3.org/1999/xlink" width="200" height="200"><defs><style type="text/css"></style></defs><path d="M830.828954 198.554148C749.88748 115.261117 636.660696 63.507406 511.344572 63.507406c-12.367679 0-24.615631 0.51063-36.727483 1.49812-14.856359 9.655917-92.960205 69.363787-122.900098 273.119401C484.765217 294.139134 641.461025 201.188138 830.828954 198.554148zM280.440645 356.592534C302.035476 188.745758 357.455693 111.543446 387.846864 80.853469 265.250688 116.151393 164.381349 202.682165 109.866758 315.764664 162.037978 359.187639 218.526527 367.111099 280.440645 356.592534zM344.864934 396.96708c-2.133593 24.205285-3.628644 50.085722-4.349051 77.763085l614.988606 0c-5.734608-75.471902-30.278607-145.688103-68.952418-205.972095C690.883645 228.713029 508.305353 351.301018 344.864934 396.96708zM274.926048 411.253458c-64.763003 7.504928-126.152165-3.823072-183.748954-50.550303-12.739139 36.104289-20.974707 74.333986-23.990391 114.02701l204.66738 0C272.366759 452.4313 273.421788 431.306166 274.926048 411.253458zM346.986247 650.708132c156.10843 49.001017 330.167698 172.822091 516.51892 130.706901 0.023536 0.086981 0.050142 0.173962 0.074701 0.261966 51.875484-66.903759 85.11554-148.982126 91.921549-238.451834L340.319407 543.225165C341.110423 582.605058 343.453794 618.319467 346.986247 650.708132zM474.317261 952.893522c12.21009 1.003863 24.558325 1.521656 37.028335 1.521656 106.778932 0 204.779943-37.575804 281.512558-100.219539-171.294294-7.517207-314.485531-95.783507-436.996772-141.222395C388.066875 892.922662 459.418946 944.023504 474.317261 952.893522zM122.369513 726.183104c56.812937 101.520161 152.201447 178.527023 266.346137 211.137745-28.059056-28.839839-78.645175-98.977245-103.153358-245.312078C226.384495 679.792541 172.327322 685.521009 122.369513 726.183104zM277.795399 634.492822c-2.940982-28.062126-4.970198-58.411341-5.833869-91.266633L67.187727 543.226189c3.731998 49.062416 15.426341 95.895047 33.767058 139.228995C156.415934 636.101459 215.495494 625.783463 277.795399 634.492822z" p-id="17175"></path></svg>