<?xml version="1.0" standalone="no"?><!DOCTYPE svg PUBLIC "-//W3C//DTD SVG 1.1//EN" "http://www.w3.org/Graphics/SVG/1.1/DTD/svg11.dtd"><svg t="1584285101298" class="icon" viewBox="0 0 1024 1024" version="1.1" xmlns="http://www.w3.org/2000/svg" p-id="4745" xmlns:xlink="http://www.w3.org/1999/xlink" width="200" height="200"><defs><style type="text/css"></style></defs><path d="M272.384 0C153.702 0 57.139 113.971 57.139 254.157c0 110.08 61.338 207.974 148.583 241.561-8.295 83.764-37.888 384.103-37.888 423.527 0 57.753 46.899 104.755 104.55 104.755 63.488 0 104.55-41.165 104.55-104.755 0-48.026-27.75-343.757-35.43-424.653 85.914-34.509 146.125-131.482 146.125-240.538C487.629 113.971 391.066 0 272.384 0z m33.178 451.174c-14.132 3.687-22.63 18.125-18.944 32.154 0.204 0.717 0.614 1.331 0.921 2.048 13.005 135.475 36.557 392.806 36.557 433.869 0 42.905-28.16 51.917-51.712 51.917-28.98 0-51.712-22.836-51.712-51.917 0-35.123 28.672-329.114 39.731-439.501 1.229-12.8-7.065-23.962-18.944-27.443-0.819-0.307-1.536-0.922-2.355-1.127-74.854-19.456-129.126-102.297-129.126-197.017 0-111.002 72.806-201.319 162.406-201.319S434.79 143.155 434.79 254.157c0 94.72-54.374 177.664-129.228 197.017zM940.442 29.389a26.353 26.353 0 0 0-26.42 26.419v239.309c0 72.704-51.2 136.909-121.753 152.678-14.234 3.175-23.143 17.306-19.968 31.54 0.102 0.614 0.41 1.023 0.614 1.535 12.8 134.247 36.967 396.8 36.967 438.375 0 42.905-28.16 51.917-51.712 51.917-28.98 0-51.712-22.836-51.712-51.917 0-35.123 28.672-329.114 39.73-439.501 0.103-0.512-0.204-0.922-0.204-1.434 2.355-13.824-6.451-27.238-20.378-30.208-71.475-15.155-123.392-79.462-123.392-152.985V55.808a26.353 26.353 0 0 0-26.419-26.42 26.353 26.353 0 0 0-26.419 26.42v239.309c0 90.214 58.675 169.984 142.336 198.246-7.987 80.18-38.093 386.048-38.093 425.882 0 57.753 46.9 104.755 104.55 104.755 63.489 0 104.551-41.165 104.551-104.755 0-48.435-28.262-349.184-35.635-426.701 82.227-28.98 139.776-108.34 139.776-197.325V55.808c0-14.54-11.776-26.42-26.42-26.42z" fill="" p-id="4746"></path><path d="M693.043 334.54a26.353 26.353 0 0 0 26.42-26.418V55.808a26.353 26.353 0 0 0-26.42-26.42 26.353 26.353 0 0 0-26.419 26.42v252.314a26.353 26.353 0 0 0 26.42 26.419zM823.296 334.54a26.353 26.353 0 0 0 26.42-26.418V55.808a26.353 26.353 0 0 0-26.42-26.42 26.353 26.353 0 0 0-26.42 26.42v252.314a26.353 26.353 0 0 0 26.42 26.419z" fill="" p-id="4747"></path></svg>